<?xml version="1.0" standalone="no"?>
<!DOCTYPE svg PUBLIC "-//W3C//DTD SVG 20010904//EN"
 "http://www.w3.org/TR/2001/REC-SVG-20010904/DTD/svg10.dtd">
<svg version="1.0" xmlns="http://www.w3.org/2000/svg"
 width="1120.000000pt" height="1120.000000pt" viewBox="0 0 1120.000000 1120.000000"
 preserveAspectRatio="xMidYMid meet">

<g transform="translate(0.000000,1120.000000) scale(0.100000,-0.100000)"
fill="#000000" stroke="none">
<path d="M0 5600 l0 -5600 5600 0 5600 0 0 5600 0 5600 -5600 0 -5600 0 0
-5600z m5746 2943 c3 3 21 1 40 -3 23 -5 34 -4 35 4 0 8 2 8 5 -1 4 -8 25 -10
67 -7 34 2 85 0 112 -6 28 -6 62 -11 78 -10 15 0 27 -5 27 -11 0 -8 4 -8 15 1
12 10 15 10 15 0 0 -7 7 -10 16 -6 8 3 13 2 10 -3 -3 -5 1 -12 10 -15 8 -3 12
-2 9 4 -3 6 -2 10 4 10 5 0 12 -4 15 -9 5 -8 38 -16 111 -25 16 -3 31 -9 33
-15 2 -6 8 -8 13 -5 6 3 19 -2 30 -12 10 -9 19 -14 19 -9 0 4 7 2 15 -5 8 -7
15 -9 15 -5 0 3 15 -3 34 -14 18 -12 45 -21 58 -21 14 0 33 -9 43 -20 10 -11
23 -19 29 -17 6 2 23 -4 38 -15 16 -11 32 -16 38 -13 5 3 10 -1 10 -9 0 -10 9
-16 25 -16 14 0 28 -6 31 -14 3 -8 19 -18 35 -21 16 -4 29 -13 29 -20 0 -8 8
-16 18 -19 10 -4 29 -16 41 -28 13 -11 33 -21 45 -22 13 -1 22 -9 24 -22 2
-16 8 -20 21 -17 13 3 20 -2 25 -21 3 -13 15 -28 26 -31 11 -3 20 -12 20 -20
0 -8 7 -11 19 -8 12 3 24 -3 35 -18 9 -13 16 -20 16 -15 0 9 66 -80 77 -104 9
-21 24 -30 51 -30 13 0 21 -4 17 -9 -3 -5 5 -18 17 -28 13 -10 24 -27 26 -38
2 -11 10 -25 19 -32 8 -6 12 -16 8 -22 -3 -6 1 -11 9 -11 9 0 16 -7 16 -15 0
-8 5 -15 10 -15 6 0 18 -16 27 -35 9 -19 20 -35 25 -35 4 0 8 -9 8 -20 0 -11
7 -23 15 -26 8 -4 15 -13 15 -20 0 -8 6 -17 14 -20 8 -3 12 -12 9 -20 -3 -8 0
-14 7 -14 7 0 10 -7 6 -15 -3 -8 -1 -15 5 -15 6 0 8 -8 5 -17 -4 -10 -4 -14 0
-10 9 9 85 -143 78 -155 -3 -4 0 -8 6 -8 7 0 10 -7 6 -15 -3 -9 0 -15 9 -15 8
0 15 -6 15 -14 0 -7 11 -34 25 -59 13 -26 22 -54 19 -62 -4 -8 -2 -15 4 -15 5
0 8 -11 7 -25 -2 -17 2 -25 11 -25 9 0 12 -4 9 -10 -3 -5 0 -10 7 -10 9 0 9
-3 -2 -10 -9 -6 -10 -10 -3 -10 7 0 12 -16 11 -41 0 -23 4 -44 8 -48 5 -3 10
-15 12 -26 9 -63 12 -79 17 -83 2 -3 0 -12 -4 -21 -5 -9 -4 -26 2 -41 6 -14
12 -43 13 -65 2 -22 3 -47 4 -55 0 -8 -2 -29 -4 -47 -5 -27 -3 -31 12 -27 11
4 13 3 5 -3 -7 -5 -11 -45 -10 -113 0 -136 -12 -233 -29 -226 -9 4 -10 -3 -3
-26 4 -17 5 -36 1 -42 -4 -6 -7 -29 -8 -51 0 -23 -6 -51 -13 -63 -7 -12 -9
-27 -6 -32 3 -5 -3 -18 -15 -30 -23 -23 -25 -31 -8 -28 6 2 14 -5 16 -16 2
-11 0 -16 -7 -12 -18 11 -12 -6 7 -20 14 -11 14 -13 2 -14 -17 0 -68 -50 -51
-50 8 0 6 -12 -4 -36 -8 -20 -15 -43 -15 -52 0 -8 -8 -24 -17 -34 -16 -18 -23
-42 -24 -81 0 -10 -7 -21 -15 -24 -9 -3 -12 -13 -8 -29 4 -15 2 -24 -5 -24 -6
0 -11 -8 -11 -18 0 -11 -9 -29 -20 -42 -11 -13 -20 -31 -20 -41 0 -10 -5 -21
-11 -24 -5 -4 -8 -12 -6 -18 2 -6 -5 -20 -15 -31 -10 -11 -18 -25 -18 -30 0
-6 5 -4 10 4 11 17 13 9 4 -15 -4 -9 -18 -21 -33 -27 -15 -6 -21 -12 -13 -15
18 -7 15 -43 -4 -43 -10 0 -12 -4 -7 -12 4 -7 8 -15 8 -18 11 -69 18 -89 37
-93 14 -4 19 -11 14 -23 -4 -11 -2 -15 8 -11 10 4 16 -5 20 -29 4 -18 10 -33
14 -32 18 3 42 -16 42 -35 0 -11 3 -18 6 -15 7 8 59 -44 56 -56 -2 -5 4 -6 12
-3 10 4 13 1 10 -8 -3 -8 3 -16 16 -20 13 -4 19 -12 16 -21 -3 -8 -2 -14 3
-14 4 0 14 -12 22 -27 8 -16 25 -41 39 -56 21 -25 68 -141 70 -173 0 -6 -8
-20 -18 -32 -10 -11 -27 -37 -38 -58 -22 -43 -101 -120 -121 -118 -7 1 -11 -2
-8 -6 8 -12 -62 -80 -99 -95 -20 -8 -36 -20 -36 -26 0 -5 -13 -15 -30 -20 -16
-6 -30 -17 -30 -25 0 -8 -7 -14 -15 -14 -8 0 -14 -3 -14 -7 3 -20 -2 -34 -11
-28 -5 3 -40 -23 -77 -60 -37 -36 -73 -65 -81 -65 -11 0 -87 66 -141 122 -24
26 -308 308 -368 367 -60 58 -49 58 -182 -8 -163 -83 -362 -146 -561 -180
-659 -113 -1327 106 -1792 585 -283 292 -457 641 -534 1069 -22 121 -25 467
-6 585 20 119 60 289 88 374 25 78 99 254 130 309 9 15 13 35 10 43 -3 7 -2
14 3 14 7 0 21 45 20 65 0 3 7 13 16 21 8 9 15 24 15 35 0 11 5 17 10 14 9 -6
14 16 13 53 -1 7 9 20 22 28 14 9 21 22 18 32 -2 10 6 27 21 41 13 13 22 29
20 36 -3 7 7 23 23 35 15 12 28 26 28 30 0 8 27 39 123 136 23 24 42 48 42 53
0 5 9 12 19 16 11 3 23 15 26 26 4 10 13 19 21 19 8 0 17 7 20 15 4 8 10 12
15 9 5 -3 9 2 9 10 0 9 3 15 8 14 4 0 15 2 25 7 15 6 16 10 5 17 -10 7 -8 8 5
4 20 -6 57 13 57 30 0 17 87 81 136 100 24 9 44 21 44 25 0 5 6 9 14 9 8 0 21
6 28 13 18 19 60 41 78 43 29 3 67 29 62 43 -3 10 0 12 12 8 9 -4 16 -2 16 4
0 6 7 9 15 5 8 -3 19 2 24 13 6 10 19 17 33 16 13 -1 31 4 40 12 9 8 22 12 29
7 8 -4 10 -3 5 4 -6 11 0 14 20 11 4 0 10 4 13 9 4 6 18 13 31 15 14 2 32 6
40 9 17 6 81 24 125 34 17 4 38 6 48 5 10 -1 17 4 17 15 0 13 3 14 15 4 10 -9
15 -9 15 -1 0 6 9 11 21 11 11 0 18 3 16 8 -3 4 7 7 21 7 98 0 342 19 342 26
0 6 9 5 21 -1 11 -7 23 -10 25 -7z m1614 -4363 c0 -5 -5 -10 -11 -10 -5 0 -7
5 -4 10 3 6 8 10 11 10 2 0 4 -4 4 -10z m-2538 -890 c0 -25 0 -51 -1 -57 -1
-9 -19 -13 -56 -13 l-55 0 0 60 0 61 56 -3 57 -3 -1 -45z m620 -126 l3 -175
74 85 75 86 63 0 c35 0 63 -3 63 -6 0 -3 -37 -46 -81 -95 l-81 -88 90 -113 90
-113 -66 -3 c-55 -2 -69 0 -79 15 -32 45 -106 133 -111 133 -25 -1 -34 -23
-36 -81 l-1 -64 -57 -3 -58 -3 0 301 0 300 55 0 55 0 2 -176z m-1455 137 c59
-27 119 -93 139 -153 26 -79 16 -210 -20 -272 l-28 -48 48 -50 49 -50 -35 -29
c-19 -16 -37 -29 -40 -29 -3 0 -28 22 -55 48 l-50 48 -35 -14 c-54 -23 -156
-19 -217 8 -61 26 -125 90 -144 146 -17 49 -17 185 -1 242 17 57 75 119 137
148 66 31 189 33 252 5z m2161 -10 c106 -47 147 -127 140 -273 -5 -107 -26
-158 -83 -206 -58 -47 -124 -64 -272 -70 l-133 -4 0 292 0 292 148 -4 c127 -3
154 -7 200 -27z m-934 -131 c23 -8 26 -15 26 -56 l0 -46 -32 9 c-48 12 -117 6
-145 -12 -29 -19 -43 -53 -43 -105 0 -55 17 -86 57 -105 34 -16 49 -16 136 1
26 5 27 4 27 -40 0 -58 -19 -69 -120 -70 -79 0 -135 20 -172 61 -45 49 -61
152 -37 236 13 47 73 109 119 124 45 14 151 16 184 3z m1416 -45 l0 -55 -45 0
c-86 0 -110 -56 -100 -237 l4 -83 -60 0 -59 0 0 211 0 210 53 -3 c49 -3 52 -5
55 -32 l4 -28 15 22 c18 26 67 49 106 50 26 0 27 -2 27 -55z m374 21 c100 -58
125 -224 49 -325 -36 -47 -94 -71 -173 -71 -79 0 -137 24 -173 72 -68 88 -53
235 31 311 57 52 189 58 266 13z m490 19 c64 -30 96 -100 96 -204 -1 -111 -51
-187 -141 -211 -49 -14 -87 -6 -134 25 l-35 24 0 -104 0 -105 -58 0 -57 0 0
290 0 290 53 0 c50 0 52 -1 52 -27 0 -24 1 -25 18 -11 54 48 144 62 206 33z
m-3154 -131 c0 -74 5 -144 10 -154 17 -32 47 -43 83 -31 52 17 60 41 65 189
l5 132 53 0 54 0 0 -210 0 -210 -50 0 -50 0 0 38 0 37 -23 -27 c-12 -14 -32
-31 -44 -37 -33 -17 -135 -14 -161 5 -45 32 -52 62 -52 239 l0 165 55 0 55 0
0 -136z m484 -74 l1 -205 -57 -3 -58 -3 0 211 0 211 57 -3 57 -3 0 -205z"/>
<path d="M5480 7487 c-41 -5 -85 -8 -97 -8 -13 1 -23 -3 -23 -8 0 -6 -13 -9
-29 -9 -15 1 -33 -2 -40 -6 -6 -4 -11 -1 -11 6 -1 8 -6 6 -15 -6 -8 -10 -26
-18 -40 -18 -14 0 -28 -4 -31 -9 -3 -5 -14 -9 -25 -9 -10 0 -19 -4 -19 -9 0
-5 -12 -12 -26 -15 -36 -9 -152 -65 -159 -77 -4 -5 -10 -7 -14 -5 -4 3 -21 -9
-37 -27 -16 -18 -47 -45 -69 -62 -50 -38 -120 -105 -111 -105 4 0 -5 -12 -19
-27 -29 -30 -60 -84 -57 -95 1 -5 -5 -8 -13 -8 -8 0 -15 -5 -15 -12 0 -6 -8
-20 -17 -30 -9 -11 -18 -24 -19 -31 -10 -54 -15 -80 -24 -102 -6 -15 -10 -37
-10 -51 0 -13 -4 -24 -9 -24 -4 0 -6 -11 -3 -25 2 -15 0 -25 -7 -25 -6 0 -11
-11 -11 -25 0 -14 5 -25 11 -25 8 0 8 -4 1 -12 -9 -12 -9 -48 0 -153 2 -16 8
-33 13 -37 6 -3 12 -35 13 -70 2 -34 8 -68 13 -74 5 -7 7 -24 3 -38 -4 -19 -2
-28 10 -32 14 -6 16 -15 10 -61 -6 -53 -6 -55 15 -48 18 5 24 0 37 -30 8 -20
12 -40 9 -45 -4 -6 -2 -10 3 -10 5 0 17 -12 27 -26 9 -15 13 -24 7 -20 -6 4
-8 -2 -5 -14 3 -11 10 -23 16 -27 6 -4 7 -1 2 8 -6 11 -5 11 4 3 7 -6 15 -30
18 -53 3 -24 10 -38 16 -34 6 4 8 0 4 -10 -3 -9 -3 -16 1 -16 20 3 32 -3 32
-16 0 -8 5 -15 10 -15 17 0 62 -49 55 -59 -3 -5 4 -12 15 -16 11 -3 20 -10 20
-15 0 -5 13 -23 30 -41 16 -18 27 -36 24 -40 -6 -11 31 -30 41 -21 4 4 6 -3 3
-15 -4 -14 -2 -20 6 -17 7 3 12 -5 13 -18 1 -13 7 -24 13 -26 5 -2 8 -8 4 -13
-3 -5 -1 -8 4 -7 20 6 69 -75 66 -110 -1 -17 2 -35 7 -38 5 -3 9 -15 9 -28 0
-12 5 -27 12 -34 6 -6 11 -25 10 -42 0 -16 4 -30 9 -30 6 0 8 -4 5 -9 -3 -5 7
-22 23 -39 82 -85 439 -137 676 -97 86 15 201 49 218 65 11 9 -52 82 -64 75
-5 -3 -18 6 -31 20 -12 14 -28 23 -36 20 -7 -2 -10 0 -7 5 3 6 -10 19 -29 31
-20 12 -36 25 -36 29 0 4 -10 10 -23 14 -23 5 -87 62 -87 76 0 4 -6 7 -13 6
-13 -1 -107 78 -107 90 0 6 -59 63 -98 93 -17 14 -29 28 -26 33 3 4 -2 5 -11
2 -11 -5 -14 -2 -8 12 4 10 2 15 -4 11 -6 -4 -11 13 -12 46 -1 57 -8 47 114
183 38 42 79 77 94 81 26 6 51 25 51 39 0 14 65 65 110 87 25 12 48 26 52 32
5 6 8 6 8 0 0 -5 12 8 26 29 20 29 28 35 35 25 7 -11 9 -10 9 4 0 10 5 15 10
12 6 -3 10 -3 10 2 0 11 81 43 100 40 8 -2 30 -11 48 -20 18 -10 37 -15 42
-12 6 3 10 2 10 -3 0 -5 8 -18 18 -30 9 -11 25 -30 35 -42 10 -11 22 -18 27
-15 6 3 10 1 10 -5 0 -16 20 -34 58 -54 18 -9 32 -23 32 -30 0 -7 18 -33 40
-57 22 -24 40 -40 40 -34 0 5 7 -1 16 -13 8 -12 21 -22 27 -22 7 0 13 -9 14
-19 2 -23 33 -61 50 -61 7 0 13 -9 13 -19 0 -17 24 -36 41 -33 4 1 6 -6 5 -16
0 -10 5 -16 14 -15 8 2 23 -11 32 -27 11 -19 22 -28 32 -24 17 6 69 91 69 111
0 7 3 13 6 13 12 0 32 60 25 71 -4 8 -3 9 4 5 11 -6 14 15 12 69 0 3 6 18 14
33 9 18 16 68 18 133 2 58 8 110 12 117 4 7 4 27 0 45 -4 17 -8 39 -9 47 -1 8
-5 26 -9 40 -4 14 -8 47 -10 72 -2 26 -13 63 -25 83 -12 20 -24 53 -27 73 -3
21 -10 45 -16 55 -5 10 -12 31 -14 45 -3 15 -16 48 -30 75 -13 27 -24 55 -24
63 0 8 -5 14 -10 14 -6 0 -19 19 -29 43 -10 23 -29 51 -42 63 -32 29 -59 62
-59 74 0 6 -7 10 -15 10 -8 0 -15 4 -15 10 0 5 -33 42 -74 82 -110 109 -144
138 -161 138 -8 0 -15 4 -15 9 0 5 -12 13 -27 19 -16 5 -39 19 -52 31 -13 11
-28 18 -32 15 -5 -3 -9 -1 -9 4 0 5 -20 15 -45 22 -25 7 -45 17 -45 21 0 5 -8
9 -19 9 -10 0 -38 9 -63 19 -24 11 -61 22 -83 25 -22 2 -40 6 -40 7 0 1 -13 3
-30 4 -16 1 -68 5 -115 9 -126 12 -148 12 -230 3z"/>
<path d="M3792 3203 c-46 -23 -72 -64 -84 -136 -13 -79 1 -135 46 -185 31 -33
38 -36 102 -40 l69 -3 -39 34 -40 34 35 31 c19 17 38 32 42 32 5 0 24 -12 43
-26 19 -15 38 -24 42 -20 4 4 7 47 7 94 0 68 -4 95 -21 126 -36 69 -127 96
-202 59z"/>
<path d="M5920 3036 l0 -186 68 0 c127 0 177 51 177 180 0 127 -48 179 -176
188 l-69 5 0 -187z"/>
<path d="M6832 3063 c-23 -9 -42 -62 -42 -118 0 -49 4 -60 29 -86 51 -51 131
-30 152 40 15 52 4 126 -24 151 -20 19 -82 26 -115 13z"/>
<path d="M7309 3041 c-24 -25 -29 -38 -29 -80 0 -69 14 -98 54 -118 31 -14 39
-15 73 -2 48 19 69 66 58 135 -13 92 -95 126 -156 65z"/>
</g>
</svg>
